<?xml version="1.0" encoding="utf-8"?>
<svg version="1.1" xmlns="http://www.w3.org/2000/svg" xmlns:xlink="http://www.w3.org/1999/xlink" width="16" height="16" viewBox="0 0 16 16">
  <rect width="16" height="16" id="icon-bound" fill="none" />
    <path d="M11.5,0L10,0L10,3L9,3L9,1L5,1L5,0L3.5,0L3.5,3L2.5,3L2.5,1L1,1C0.448,1 0,1.448 0,2L0,12C0,12.552 0.448,13 1,13L5.341,13C5.12,12.374 5,11.701 5,11L2,11L2,5L12,5C13,5 13.393,5.368 14,5.72L14,2C14,1.448 13.552,1 13,1L11.5,1L11.5,0Z"/>
    <path d="M16,11C16,13.761 13.761,16 11,16C8.239,16 6,13.761 6,11C6,8.239 8.239,6 11,6C13.761,6 16,8.239 16,11ZM8.5,11.625L13.5,11.625L13.5,10.375L8.5,10.375L8.5,11.625Z"/>
</svg>
