<?xml version="1.0" encoding="utf-8"?>
<svg version="1.1" xmlns="http://www.w3.org/2000/svg" xmlns:xlink="http://www.w3.org/1999/xlink" width="16" height="16" viewBox="0 0 16 16">
  <rect width="16" height="16" id="icon-bound" fill="none" />
  <path d="M8,14l0,2l-8,0l0,-2l8,0Zm-7,-7l14,0c0.552,0 1,0.448 1,1l0,4c0,0.552 -0.448,1 -1,1l-14,0c-0.552,0 -1,-0.448 -1,-1l0,-4c0,-0.552 0.448,-1 1,-1Zm1,2l0,2l12,0l0,-2l-12,0Zm-1,-9l14,0c0.552,0 1,0.448 1,1l0,4c0,0.552 -0.448,1 -1,1l-14,0c-0.552,0 -1,-0.448 -1,-1l0,-4c0,-0.552 0.448,-1 1,-1Zm1,2l0,2l12,0l0,-2l-12,0Z" />
</svg>
