<?xml version="1.0" encoding="utf-8"?>
<svg version="1.1" xmlns="http://www.w3.org/2000/svg" xmlns:xlink="http://www.w3.org/1999/xlink" width="16" height="16" viewBox="0 0 16 16">
  <rect width="16" height="16" id="icon-bound" fill="none" />
  <path id="brand-bluesky" d="M5.304,15.028c-0.996,0.112 -1.699,-0.432 -2.397,-1.038c-0.999,-0.867 -1.615,-2.159 -0.782,-3.171c0.807,-0.98 2.412,-1.22 2.412,-1.22c-0,0 -1.957,0.258 -3.175,-0.826c-0.622,-0.553 -0.97,-1.276 -1.057,-2.113c-0.111,-1.076 -0.292,-3.277 -0.305,-4.09c-0.014,-0.918 0.335,-1.533 0.941,-1.6c1.453,-0.162 3.159,1.205 4.816,3.225c1.612,1.964 2.243,3.353 2.243,3.353c-0,0 0.631,-1.389 2.243,-3.353c1.657,-2.02 3.363,-3.387 4.815,-3.225c0.607,0.067 0.956,0.682 0.942,1.6c-0.013,0.813 -0.194,3.014 -0.305,4.09c-0.087,0.837 -0.435,1.56 -1.056,2.113c-1.219,1.084 -3.176,0.826 -3.176,0.826c0,0 1.605,0.24 2.412,1.22c0.833,1.012 0.217,2.304 -0.782,3.171c-0.698,0.606 -1.401,1.15 -2.397,1.038c-1.813,-0.203 -2.696,-3.58 -2.696,-3.58c-0,-0 -0.883,3.377 -2.696,3.58Z" />
</svg>
