<?xml version="1.0" encoding="utf-8"?>
<svg version="1.1" xmlns="http://www.w3.org/2000/svg" xmlns:xlink="http://www.w3.org/1999/xlink" width="16" height="16" viewBox="0 0 16 16">
  <rect width="16" height="16" id="icon-bound" fill="none" />
  <path id="brand-stackoverflow" d="M11.212,11.359l-6.982,-1.468l0.294,-1.396l6.981,1.468l-0.293,1.396Zm0.409,-1.799l-6.467,-3.012l0.602,-1.293l6.468,3.012l-0.603,1.293Zm0.806,-1.619l-5.483,-4.566l0.913,-1.096l5.483,4.565l-0.913,1.097Zm-3.089,-7.089l1.145,-0.852l4.258,5.725l-1.145,0.852l-4.258,-5.725Zm1.872,12.305l-7.108,-0l0,-1.422l7.108,0l0,1.422Zm2.843,-2.843l-1.421,-0l-0,4.264l-9.951,0l-0,-4.264l-1.422,-0l0,5.686l12.794,-0l0,-5.686Z" />
</svg>
