<?xml version="1.0" encoding="utf-8"?>
<svg version="1.1" xmlns="http://www.w3.org/2000/svg" xmlns:xlink="http://www.w3.org/1999/xlink" width="16" height="16" viewBox="0 0 16 16">
   <path d="m 3.4682,1.0769832 c 1.83436,1.56408 3.80732,4.73545 4.5318,6.43719 0.72448,-1.70174 2.69744,-4.87311 4.5318,-6.43719 C 13.85538,-0.05156679 16,-0.92478679 16,1.8538532 c 0,0.55491 -0.28014,4.66171 -0.44445,5.32849 -0.57113,2.31796 -2.65225,2.9091798 -4.50352,2.55134 3.23591,0.6254898 4.05907,2.6973198 2.28129,4.7691498 -3.37633,3.93483 -4.85273,-0.98725 -5.23104,-2.24846 -0.0693,-0.23121 -0.1018,-0.33938 -0.10228,-0.2474 -4.8e-4,-0.092 -0.0329,0.0162 -0.10228,0.2474 -0.37831,1.26121 -1.85471,6.18329 -5.23105,2.24846 C 0.88889,12.431003 1.71205,10.359173 4.94797,9.7336832 3.0967,10.091523 1.01559,9.5003032 0.44445,7.1823432 0.28015,6.5155632 0,2.4087632 0,1.8538532 0,-0.92478679 2.14463,-0.05156679 3.4682,1.0769832 Z" />
</svg>